# xmcd
#
# Track frame offsets: 
#        150
#        15633
#        36469
#        52762
#        69220
#        85489
#        104411
#        119767
#        135857
#        154708
#        168909
#        182654
#        200444
#        215196
#        226534
#        240803
#        253029
#        268314
#        282071
#
# Disc length: 4008 seconds
#
# Revision: 0
# Processed by: cddbd v1.5.2PL0 Copyright (c) Steve Scherf et al.
# Submitted via: ExactAudioCopy v0.95b4
#
DISCID=010fa613
DTITLE=Various Artist - Country Tuis 2
DYEAR=2006
DGENRE=Country
TTITLE0=Steve Hofmeyr - Gypsy Woman
TTITLE1=Theuns Jordaan - Sunday Morning Comin' Down
TTITLE2=Juanita - Feelin the Feelin'
TTITLE3=Eden - Because it's love
TTITLE4=Sacha - That's how you know (when you're in love)
TTITLE5=Theuns Jordaan and Bobby van Jaarsveld - Me and Bobby Mcgee
TTITLE6=Anke - Some Hearts
TTITLE7=Alan LAdd - Forever and ever Amen
TTITLE8=Reana - I hope you dance
TTITLE9=Clint - Bad moon risen'
TTITLE10=Patricia Lewis - Will you still love me womorrow
TTITLE11=Guillaume - Making memories of us
TTITLE12=Nadine - When will I be loved
TTITLE13=Mathys Roets - Some broken hearts
TTITLE14=Limpopo - Jeans on
TTITLE15=Dozi - Darlin'
TTITLE16=Nianell - Running so long
TTITLE17=Christo and Cobus - Down south in New Orleans
TTITLE18=Eric Streso - Lay down Sally End of the line Oh lonesome me
EXTD=
EXTT0=
EXTT1=
EXTT2=
EXTT3=
EXTT4=
EXTT5=
EXTT6=
EXTT7=
EXTT8=
EXTT9=
EXTT10=
EXTT11=
EXTT12=
EXTT13=
EXTT14=
EXTT15=
EXTT16=
EXTT17=
EXTT18=
PLAYORDER=
